<mxfile host="app.diagrams.net" modified="2023-01-25T16:10:32.900Z" agent="5.0 (Windows)" etag="VIoHWWJ73gwrO7PgqFNF" version="20.8.11" type="github">
  <diagram name="Page-1" id="g4egNxcppEt3CNvm98ZU">
    <mxGraphModel dx="2591" dy="745" grid="1" gridSize="10" guides="1" tooltips="1" connect="1" arrows="1" fold="1" page="1" pageScale="1" pageWidth="1169" pageHeight="827" math="0" shadow="0">
      <root>
        <mxCell id="0" />
        <mxCell id="1" parent="0" />
        <mxCell id="moCKxcB6sKFw1QIm4DEG-2" value="" style="rounded=0;whiteSpace=wrap;html=1;" vertex="1" parent="1">
          <mxGeometry x="390" y="324" width="186" height="90" as="geometry" />
        </mxCell>
        <mxCell id="moCKxcB6sKFw1QIm4DEG-4" value="" style="endArrow=none;html=1;rounded=0;entryX=1;entryY=0.344;entryDx=0;entryDy=0;entryPerimeter=0;" edge="1" parent="1" target="moCKxcB6sKFw1QIm4DEG-2">
          <mxGeometry width="50" height="50" relative="1" as="geometry">
            <mxPoint x="390" y="354" as="sourcePoint" />
            <mxPoint x="440" y="304" as="targetPoint" />
          </mxGeometry>
        </mxCell>
        <mxCell id="moCKxcB6sKFw1QIm4DEG-5" value="General Practice / Surgery" style="text;html=1;strokeColor=none;fillColor=none;align=center;verticalAlign=middle;whiteSpace=wrap;rounded=0;" vertex="1" parent="1">
          <mxGeometry x="409.5" y="324" width="147" height="30" as="geometry" />
        </mxCell>
        <mxCell id="moCKxcB6sKFw1QIm4DEG-6" value="" style="rounded=0;whiteSpace=wrap;html=1;" vertex="1" parent="1">
          <mxGeometry x="790" y="324" width="186" height="90" as="geometry" />
        </mxCell>
        <mxCell id="moCKxcB6sKFw1QIm4DEG-7" value="" style="endArrow=none;html=1;rounded=0;entryX=1;entryY=0.344;entryDx=0;entryDy=0;entryPerimeter=0;" edge="1" parent="1" target="moCKxcB6sKFw1QIm4DEG-6">
          <mxGeometry width="50" height="50" relative="1" as="geometry">
            <mxPoint x="790" y="354" as="sourcePoint" />
            <mxPoint x="840" y="304" as="targetPoint" />
          </mxGeometry>
        </mxCell>
        <mxCell id="moCKxcB6sKFw1QIm4DEG-8" value="Central Health Records" style="text;html=1;strokeColor=none;fillColor=none;align=center;verticalAlign=middle;whiteSpace=wrap;rounded=0;" vertex="1" parent="1">
          <mxGeometry x="809.5" y="324" width="147" height="30" as="geometry" />
        </mxCell>
        <mxCell id="moCKxcB6sKFw1QIm4DEG-12" value="" style="rounded=0;whiteSpace=wrap;html=1;" vertex="1" parent="1">
          <mxGeometry x="140" y="150" width="186" height="90" as="geometry" />
        </mxCell>
        <mxCell id="moCKxcB6sKFw1QIm4DEG-13" value="" style="endArrow=none;html=1;rounded=0;entryX=1;entryY=0.344;entryDx=0;entryDy=0;entryPerimeter=0;" edge="1" parent="1" target="moCKxcB6sKFw1QIm4DEG-12">
          <mxGeometry width="50" height="50" relative="1" as="geometry">
            <mxPoint x="140" y="180" as="sourcePoint" />
            <mxPoint x="190" y="130" as="targetPoint" />
          </mxGeometry>
        </mxCell>
        <mxCell id="moCKxcB6sKFw1QIm4DEG-14" value="Patient" style="text;html=1;strokeColor=none;fillColor=none;align=center;verticalAlign=middle;whiteSpace=wrap;rounded=0;" vertex="1" parent="1">
          <mxGeometry x="173" y="150" width="120" height="30" as="geometry" />
        </mxCell>
        <mxCell id="moCKxcB6sKFw1QIm4DEG-15" value="" style="rounded=0;whiteSpace=wrap;html=1;" vertex="1" parent="1">
          <mxGeometry x="293" y="770" width="186" height="90" as="geometry" />
        </mxCell>
        <mxCell id="moCKxcB6sKFw1QIm4DEG-16" value="" style="endArrow=none;html=1;rounded=0;entryX=1;entryY=0.344;entryDx=0;entryDy=0;entryPerimeter=0;" edge="1" parent="1" target="moCKxcB6sKFw1QIm4DEG-15">
          <mxGeometry width="50" height="50" relative="1" as="geometry">
            <mxPoint x="293" y="800" as="sourcePoint" />
            <mxPoint x="343" y="750" as="targetPoint" />
          </mxGeometry>
        </mxCell>
        <mxCell id="moCKxcB6sKFw1QIm4DEG-17" value="Doctor" style="text;html=1;strokeColor=none;fillColor=none;align=center;verticalAlign=middle;whiteSpace=wrap;rounded=0;" vertex="1" parent="1">
          <mxGeometry x="326" y="770" width="120" height="30" as="geometry" />
        </mxCell>
        <mxCell id="moCKxcB6sKFw1QIm4DEG-18" value="" style="rounded=0;whiteSpace=wrap;html=1;" vertex="1" parent="1">
          <mxGeometry x="583" y="770" width="186" height="90" as="geometry" />
        </mxCell>
        <mxCell id="moCKxcB6sKFw1QIm4DEG-19" value="" style="endArrow=none;html=1;rounded=0;entryX=1;entryY=0.344;entryDx=0;entryDy=0;entryPerimeter=0;" edge="1" parent="1" target="moCKxcB6sKFw1QIm4DEG-18">
          <mxGeometry width="50" height="50" relative="1" as="geometry">
            <mxPoint x="583" y="800" as="sourcePoint" />
            <mxPoint x="633" y="750" as="targetPoint" />
          </mxGeometry>
        </mxCell>
        <mxCell id="moCKxcB6sKFw1QIm4DEG-20" value="Receptionist / Admin" style="text;html=1;strokeColor=none;fillColor=none;align=center;verticalAlign=middle;whiteSpace=wrap;rounded=0;" vertex="1" parent="1">
          <mxGeometry x="616" y="770" width="120" height="30" as="geometry" />
        </mxCell>
        <mxCell id="moCKxcB6sKFw1QIm4DEG-21" value="" style="rounded=0;whiteSpace=wrap;html=1;" vertex="1" parent="1">
          <mxGeometry x="140" y="430" width="186" height="90" as="geometry" />
        </mxCell>
        <mxCell id="moCKxcB6sKFw1QIm4DEG-22" value="" style="endArrow=none;html=1;rounded=0;entryX=1;entryY=0.344;entryDx=0;entryDy=0;entryPerimeter=0;" edge="1" parent="1" target="moCKxcB6sKFw1QIm4DEG-21">
          <mxGeometry width="50" height="50" relative="1" as="geometry">
            <mxPoint x="140" y="460" as="sourcePoint" />
            <mxPoint x="190" y="410" as="targetPoint" />
          </mxGeometry>
        </mxCell>
        <mxCell id="moCKxcB6sKFw1QIm4DEG-23" value="Appointment" style="text;html=1;strokeColor=none;fillColor=none;align=center;verticalAlign=middle;whiteSpace=wrap;rounded=0;" vertex="1" parent="1">
          <mxGeometry x="173" y="430" width="120" height="30" as="geometry" />
        </mxCell>
        <mxCell id="moCKxcB6sKFw1QIm4DEG-27" value="" style="endArrow=classic;html=1;rounded=0;" edge="1" parent="1">
          <mxGeometry width="50" height="50" relative="1" as="geometry">
            <mxPoint x="576" y="374" as="sourcePoint" />
            <mxPoint x="790" y="374" as="targetPoint" />
          </mxGeometry>
        </mxCell>
        <mxCell id="moCKxcB6sKFw1QIm4DEG-28" value="has access to" style="text;html=1;align=center;verticalAlign=middle;resizable=0;points=[];autosize=1;strokeColor=none;fillColor=none;" vertex="1" parent="1">
          <mxGeometry x="630" y="339" width="100" height="30" as="geometry" />
        </mxCell>
        <mxCell id="moCKxcB6sKFw1QIm4DEG-29" value="1..*" style="text;html=1;align=center;verticalAlign=middle;resizable=0;points=[];autosize=1;strokeColor=none;fillColor=none;" vertex="1" parent="1">
          <mxGeometry x="570" y="379" width="40" height="30" as="geometry" />
        </mxCell>
        <mxCell id="moCKxcB6sKFw1QIm4DEG-30" value="1..*" style="text;html=1;align=center;verticalAlign=middle;resizable=0;points=[];autosize=1;strokeColor=none;fillColor=none;" vertex="1" parent="1">
          <mxGeometry x="750" y="379" width="40" height="30" as="geometry" />
        </mxCell>
        <mxCell id="moCKxcB6sKFw1QIm4DEG-34" value="" style="endArrow=classic;html=1;rounded=0;entryX=0.5;entryY=0;entryDx=0;entryDy=0;" edge="1" parent="1" target="moCKxcB6sKFw1QIm4DEG-2">
          <mxGeometry width="50" height="50" relative="1" as="geometry">
            <mxPoint x="326" y="210" as="sourcePoint" />
            <mxPoint x="376" y="160" as="targetPoint" />
            <Array as="points">
              <mxPoint x="483" y="210" />
            </Array>
          </mxGeometry>
        </mxCell>
        <mxCell id="moCKxcB6sKFw1QIm4DEG-35" value="Registers to" style="text;html=1;align=center;verticalAlign=middle;resizable=0;points=[];autosize=1;strokeColor=none;fillColor=none;" vertex="1" parent="1">
          <mxGeometry x="400" y="180" width="90" height="30" as="geometry" />
        </mxCell>
        <mxCell id="moCKxcB6sKFw1QIm4DEG-36" value="1..*" style="text;html=1;align=center;verticalAlign=middle;resizable=0;points=[];autosize=1;strokeColor=none;fillColor=none;" vertex="1" parent="1">
          <mxGeometry x="326" y="210" width="40" height="30" as="geometry" />
        </mxCell>
        <mxCell id="moCKxcB6sKFw1QIm4DEG-37" value="1..1" style="text;html=1;align=center;verticalAlign=middle;resizable=0;points=[];autosize=1;strokeColor=none;fillColor=none;" vertex="1" parent="1">
          <mxGeometry x="440" y="295" width="40" height="30" as="geometry" />
        </mxCell>
        <mxCell id="moCKxcB6sKFw1QIm4DEG-38" value="" style="endArrow=classic;html=1;rounded=0;entryX=0.567;entryY=-0.067;entryDx=0;entryDy=0;entryPerimeter=0;" edge="1" parent="1" target="moCKxcB6sKFw1QIm4DEG-23">
          <mxGeometry width="50" height="50" relative="1" as="geometry">
            <mxPoint x="240" y="240" as="sourcePoint" />
            <mxPoint x="290" y="190" as="targetPoint" />
          </mxGeometry>
        </mxCell>
        <mxCell id="moCKxcB6sKFw1QIm4DEG-39" value="books" style="text;html=1;align=center;verticalAlign=middle;resizable=0;points=[];autosize=1;strokeColor=none;fillColor=none;rotation=90;" vertex="1" parent="1">
          <mxGeometry x="230" y="320" width="60" height="30" as="geometry" />
        </mxCell>
        <mxCell id="moCKxcB6sKFw1QIm4DEG-40" value="1..*" style="text;html=1;align=center;verticalAlign=middle;resizable=0;points=[];autosize=1;strokeColor=none;fillColor=none;" vertex="1" parent="1">
          <mxGeometry x="200" y="399" width="40" height="30" as="geometry" />
        </mxCell>
        <mxCell id="moCKxcB6sKFw1QIm4DEG-41" value="1..1" style="text;html=1;align=center;verticalAlign=middle;resizable=0;points=[];autosize=1;strokeColor=none;fillColor=none;" vertex="1" parent="1">
          <mxGeometry x="200" y="240" width="40" height="30" as="geometry" />
        </mxCell>
        <mxCell id="moCKxcB6sKFw1QIm4DEG-42" value="A patient can register at 1 GP&lt;br&gt;A patient may only register at 1 GP&lt;br&gt;A GP can have 1 patient register&lt;br&gt;A GP can have many patients register" style="text;html=1;align=center;verticalAlign=middle;resizable=0;points=[];autosize=1;strokeColor=none;fillColor=none;" vertex="1" parent="1">
          <mxGeometry x="390" y="100" width="230" height="70" as="geometry" />
        </mxCell>
        <mxCell id="moCKxcB6sKFw1QIm4DEG-44" value="A patient can book 1 appointment&lt;br&gt;A patient may book many appointments&lt;br&gt;An appointment can have 1 patient&lt;br&gt;A appointment may only have 1&amp;nbsp; patient" style="text;html=1;align=center;verticalAlign=middle;resizable=0;points=[];autosize=1;strokeColor=none;fillColor=none;" vertex="1" parent="1">
          <mxGeometry x="-5" y="295" width="240" height="70" as="geometry" />
        </mxCell>
        <mxCell id="moCKxcB6sKFw1QIm4DEG-45" value="A GP can have access to a Health Record&lt;br&gt;A GP may have access to many Health Records&lt;br&gt;A Health Record can be accessed by a GP&lt;br&gt;A Health Record may be accessed by many GPs" style="text;html=1;align=center;verticalAlign=middle;resizable=0;points=[];autosize=1;strokeColor=none;fillColor=none;" vertex="1" parent="1">
          <mxGeometry x="550" y="414" width="290" height="70" as="geometry" />
        </mxCell>
        <mxCell id="moCKxcB6sKFw1QIm4DEG-46" value="" style="endArrow=classic;html=1;rounded=0;exitX=0.808;exitY=-0.033;exitDx=0;exitDy=0;exitPerimeter=0;entryX=0.183;entryY=1;entryDx=0;entryDy=0;entryPerimeter=0;" edge="1" parent="1" source="moCKxcB6sKFw1QIm4DEG-17" target="moCKxcB6sKFw1QIm4DEG-2">
          <mxGeometry width="50" height="50" relative="1" as="geometry">
            <mxPoint x="446" y="479" as="sourcePoint" />
            <mxPoint x="430" y="410" as="targetPoint" />
          </mxGeometry>
        </mxCell>
        <mxCell id="moCKxcB6sKFw1QIm4DEG-47" value="Works for" style="text;html=1;align=center;verticalAlign=middle;resizable=0;points=[];autosize=1;strokeColor=none;fillColor=none;rotation=90;" vertex="1" parent="1">
          <mxGeometry x="400" y="495" width="80" height="30" as="geometry" />
        </mxCell>
        <mxCell id="moCKxcB6sKFw1QIm4DEG-48" value="1..1" style="text;html=1;align=center;verticalAlign=middle;resizable=0;points=[];autosize=1;strokeColor=none;fillColor=none;" vertex="1" parent="1">
          <mxGeometry x="390" y="414" width="40" height="30" as="geometry" />
        </mxCell>
        <mxCell id="moCKxcB6sKFw1QIm4DEG-49" value="Can employee&lt;br&gt; only work for &lt;br&gt;1 gp?" style="text;html=1;align=center;verticalAlign=middle;resizable=0;points=[];autosize=1;strokeColor=none;fillColor=none;" vertex="1" parent="1">
          <mxGeometry x="425" y="429" width="100" height="60" as="geometry" />
        </mxCell>
        <mxCell id="moCKxcB6sKFw1QIm4DEG-50" value="1..*" style="text;html=1;align=center;verticalAlign=middle;resizable=0;points=[];autosize=1;strokeColor=none;fillColor=none;" vertex="1" parent="1">
          <mxGeometry x="390" y="740" width="40" height="30" as="geometry" />
        </mxCell>
        <mxCell id="moCKxcB6sKFw1QIm4DEG-51" value="" style="endArrow=classic;html=1;rounded=0;exitX=0.5;exitY=0;exitDx=0;exitDy=0;entryX=0.667;entryY=0.989;entryDx=0;entryDy=0;entryPerimeter=0;" edge="1" parent="1" source="moCKxcB6sKFw1QIm4DEG-20" target="moCKxcB6sKFw1QIm4DEG-2">
          <mxGeometry width="50" height="50" relative="1" as="geometry">
            <mxPoint x="540" y="450" as="sourcePoint" />
            <mxPoint x="590" y="400" as="targetPoint" />
            <Array as="points">
              <mxPoint x="676" y="560" />
              <mxPoint x="514" y="560" />
            </Array>
          </mxGeometry>
        </mxCell>
        <mxCell id="moCKxcB6sKFw1QIm4DEG-53" value="Works for" style="text;html=1;align=center;verticalAlign=middle;resizable=0;points=[];autosize=1;strokeColor=none;fillColor=none;rotation=0;" vertex="1" parent="1">
          <mxGeometry x="570" y="530" width="80" height="30" as="geometry" />
        </mxCell>
        <mxCell id="moCKxcB6sKFw1QIm4DEG-54" value="1..1" style="text;html=1;align=center;verticalAlign=middle;resizable=0;points=[];autosize=1;strokeColor=none;fillColor=none;" vertex="1" parent="1">
          <mxGeometry x="510" y="415" width="40" height="30" as="geometry" />
        </mxCell>
        <mxCell id="moCKxcB6sKFw1QIm4DEG-55" value="1..*" style="text;html=1;align=center;verticalAlign=middle;resizable=0;points=[];autosize=1;strokeColor=none;fillColor=none;" vertex="1" parent="1">
          <mxGeometry x="670" y="740" width="40" height="30" as="geometry" />
        </mxCell>
        <mxCell id="moCKxcB6sKFw1QIm4DEG-56" value="" style="endArrow=classic;html=1;rounded=0;entryX=0.328;entryY=1;entryDx=0;entryDy=0;entryPerimeter=0;exitX=0.9;exitY=0.033;exitDx=0;exitDy=0;exitPerimeter=0;" edge="1" parent="1" source="moCKxcB6sKFw1QIm4DEG-60" target="moCKxcB6sKFw1QIm4DEG-21">
          <mxGeometry width="50" height="50" relative="1" as="geometry">
            <mxPoint x="293" y="690" as="sourcePoint" />
            <mxPoint x="343" y="640" as="targetPoint" />
            <Array as="points">
              <mxPoint x="201" y="806" />
              <mxPoint x="201" y="690" />
            </Array>
          </mxGeometry>
        </mxCell>
        <mxCell id="moCKxcB6sKFw1QIm4DEG-57" value="Arranges" style="text;html=1;align=center;verticalAlign=middle;resizable=0;points=[];autosize=1;strokeColor=none;fillColor=none;rotation=90;" vertex="1" parent="1">
          <mxGeometry x="185" y="610" width="70" height="30" as="geometry" />
        </mxCell>
        <mxCell id="moCKxcB6sKFw1QIm4DEG-58" value="Logical ERD will see Doctor and Admin as EMPLOYEES and these will be a SUBTYPE " style="text;html=1;align=center;verticalAlign=middle;resizable=0;points=[];autosize=1;strokeColor=none;fillColor=none;" vertex="1" parent="1">
          <mxGeometry x="285" y="860" width="490" height="30" as="geometry" />
        </mxCell>
        <mxCell id="moCKxcB6sKFw1QIm4DEG-59" value="1..*" style="text;html=1;align=center;verticalAlign=middle;resizable=0;points=[];autosize=1;strokeColor=none;fillColor=none;" vertex="1" parent="1">
          <mxGeometry x="200" y="520" width="40" height="30" as="geometry" />
        </mxCell>
        <mxCell id="moCKxcB6sKFw1QIm4DEG-60" value="1..1" style="text;html=1;align=center;verticalAlign=middle;resizable=0;points=[];autosize=1;strokeColor=none;fillColor=none;" vertex="1" parent="1">
          <mxGeometry x="260" y="805" width="40" height="30" as="geometry" />
        </mxCell>
        <mxCell id="moCKxcB6sKFw1QIm4DEG-61" value="A Doctor can arrange 1 appointment&lt;br&gt;A Doctor may arrange many appointments&lt;br&gt;An appointment can be arranged by 1 Doctor&lt;br&gt;An appointment may only be arranged by 1 Doctor" style="text;html=1;align=center;verticalAlign=middle;resizable=0;points=[];autosize=1;strokeColor=none;fillColor=none;" vertex="1" parent="1">
          <mxGeometry x="-100" y="590" width="290" height="70" as="geometry" />
        </mxCell>
        <mxCell id="moCKxcB6sKFw1QIm4DEG-62" value="A Doctor can &amp;nbsp;&amp;nbsp; work for 1 GP&lt;br&gt;A Doctor can&amp;nbsp;&amp;nbsp;&amp;nbsp;&amp;nbsp; &amp;nbsp; &amp;nbsp; only work for 1GP&lt;br&gt;A GP can have a &amp;nbsp; &amp;nbsp; &amp;nbsp;&amp;nbsp; Doctor work there&lt;br&gt;A GP can have many&amp;nbsp; &amp;nbsp;&amp;nbsp; Doctors work there" style="text;html=1;align=center;verticalAlign=middle;resizable=0;points=[];autosize=1;strokeColor=none;fillColor=none;" vertex="1" parent="1">
          <mxGeometry x="300" y="600" width="250" height="70" as="geometry" />
        </mxCell>
        <mxCell id="moCKxcB6sKFw1QIm4DEG-63" value="A Receptionist can work for 1 GP&lt;br&gt;A Receptionist can only work for 1GP&lt;br&gt;A GP can have a receptionist work there&lt;br&gt;A GP can have many Receptionists work there" style="text;html=1;align=center;verticalAlign=middle;resizable=0;points=[];autosize=1;strokeColor=none;fillColor=none;" vertex="1" parent="1">
          <mxGeometry x="670" y="600" width="270" height="70" as="geometry" />
        </mxCell>
        <mxCell id="moCKxcB6sKFw1QIm4DEG-64" value="" style="endArrow=classic;html=1;rounded=0;entryX=0;entryY=0.5;entryDx=0;entryDy=0;" edge="1" parent="1" target="moCKxcB6sKFw1QIm4DEG-21">
          <mxGeometry width="50" height="50" relative="1" as="geometry">
            <mxPoint x="769" y="827" as="sourcePoint" />
            <mxPoint x="819" y="777" as="targetPoint" />
            <Array as="points">
              <mxPoint x="840" y="827" />
              <mxPoint x="840" y="930" />
              <mxPoint x="-150" y="930" />
              <mxPoint x="-150" y="475" />
            </Array>
          </mxGeometry>
        </mxCell>
        <mxCell id="moCKxcB6sKFw1QIm4DEG-65" value="1..*" style="text;html=1;align=center;verticalAlign=middle;resizable=0;points=[];autosize=1;strokeColor=none;fillColor=none;" vertex="1" parent="1">
          <mxGeometry x="100" y="475" width="40" height="30" as="geometry" />
        </mxCell>
        <mxCell id="moCKxcB6sKFw1QIm4DEG-66" value="1..1" style="text;html=1;align=center;verticalAlign=middle;resizable=0;points=[];autosize=1;strokeColor=none;fillColor=none;" vertex="1" parent="1">
          <mxGeometry x="760" y="820" width="40" height="30" as="geometry" />
        </mxCell>
        <mxCell id="moCKxcB6sKFw1QIm4DEG-67" value="Arranges" style="text;html=1;align=center;verticalAlign=middle;resizable=0;points=[];autosize=1;strokeColor=none;fillColor=none;" vertex="1" parent="1">
          <mxGeometry x="103" y="900" width="70" height="30" as="geometry" />
        </mxCell>
        <mxCell id="moCKxcB6sKFw1QIm4DEG-68" value="A Receptionist can arrange 1 appointment&lt;br&gt;A Receptionist may arrange many appointments&lt;br&gt;An appointment can be arranged by 1 Receptionist&lt;br&gt;An appointment may only be arranged by 1 Receptionist" style="text;html=1;align=center;verticalAlign=middle;resizable=0;points=[];autosize=1;strokeColor=none;fillColor=none;" vertex="1" parent="1">
          <mxGeometry x="-137" y="830" width="330" height="70" as="geometry" />
        </mxCell>
        <mxCell id="moCKxcB6sKFw1QIm4DEG-69" value="" style="endArrow=classic;html=1;rounded=0;exitX=0;exitY=0;exitDx=0;exitDy=0;entryX=0.828;entryY=1.056;entryDx=0;entryDy=0;entryPerimeter=0;" edge="1" parent="1" source="moCKxcB6sKFw1QIm4DEG-15" target="moCKxcB6sKFw1QIm4DEG-21">
          <mxGeometry width="50" height="50" relative="1" as="geometry">
            <mxPoint x="310" y="630" as="sourcePoint" />
            <mxPoint x="360" y="580" as="targetPoint" />
          </mxGeometry>
        </mxCell>
        <mxCell id="moCKxcB6sKFw1QIm4DEG-70" value="attends" style="text;html=1;align=center;verticalAlign=middle;resizable=0;points=[];autosize=1;strokeColor=none;fillColor=none;rotation=90;" vertex="1" parent="1">
          <mxGeometry x="250" y="620" width="60" height="30" as="geometry" />
        </mxCell>
      </root>
    </mxGraphModel>
  </diagram>
</mxfile>
